<?xml version="1.0" encoding="UTF-8" standalone="no"?>
<!-- Created with Inkscape (http://www.inkscape.org/) -->

<svg
   xmlns:dc="http://purl.org/dc/elements/1.1/"
   xmlns:cc="http://creativecommons.org/ns#"
   xmlns:rdf="http://www.w3.org/1999/02/22-rdf-syntax-ns#"
   xmlns:svg="http://www.w3.org/2000/svg"
   xmlns="http://www.w3.org/2000/svg"
   xmlns:sodipodi="http://sodipodi.sourceforge.net/DTD/sodipodi-0.dtd"
   xmlns:inkscape="http://www.inkscape.org/namespaces/inkscape"
   width="28.406534mm"
   height="22.81514mm"
   viewBox="0 0 28.406534 22.81514"
   version="1.1"
   id="svg8"
   inkscape:version="0.92.4 (5da689c313, 2019-01-14)"
   sodipodi:docname="gibberish.svg">
  <defs
     id="defs2" />
  <sodipodi:namedview
     id="base"
     pagecolor="#ffffff"
     bordercolor="#666666"
     borderopacity="1.0"
     inkscape:pageopacity="0.0"
     inkscape:pageshadow="2"
     inkscape:zoom="1.4"
     inkscape:cx="62.657926"
     inkscape:cy="-156.01307"
     inkscape:document-units="mm"
     inkscape:current-layer="layer1"
     showgrid="false"
     fit-margin-top="0"
     fit-margin-left="0"
     fit-margin-right="0"
     fit-margin-bottom="0"
     inkscape:window-width="2880"
     inkscape:window-height="1526"
     inkscape:window-x="1609"
     inkscape:window-y="840"
     inkscape:window-maximized="1" />
  <metadata
     id="metadata5">
    <rdf:RDF>
      <cc:Work
         rdf:about="">
        <dc:format>image/svg+xml</dc:format>
        <dc:type
           rdf:resource="http://purl.org/dc/dcmitype/StillImage" />
        <dc:title></dc:title>
      </cc:Work>
    </rdf:RDF>
  </metadata>
  <g
     inkscape:label="Ebene 1"
     inkscape:groupmode="layer"
     id="layer1"
     transform="translate(-62.064871,-116.28376)">
    <path
       inkscape:connector-curvature="0"
       id="path4530"
       style="font-style:normal;font-variant:normal;font-weight:normal;font-stretch:normal;font-size:10.58333302px;line-height:100%;font-family:Consolas;-inkscape-font-specification:Consolas;letter-spacing:0px;word-spacing:0px;fill:#ffffff;fill-opacity:1;stroke:none;stroke-width:0.26458332px;stroke-linecap:butt;stroke-linejoin:miter;stroke-opacity:1"
       d="m 66.974132,119.75648 q 0,0.77515 -0.155029,1.41593 -0.155029,0.63562 -0.470255,1.09554 -0.315227,0.45476 -0.785482,0.70797 -0.465088,0.24805 -1.095541,0.24805 -0.542602,0 -0.987019,-0.20154 -0.444418,-0.20671 -0.759644,-0.63045 -0.315226,-0.42375 -0.485758,-1.08004 -0.170533,-0.65629 -0.170533,-1.55546 0,-0.77515 0.15503,-1.41593 0.160197,-0.64079 0.470255,-1.09554 0.315226,-0.45992 0.785482,-0.70797 0.470256,-0.25322 1.09554,-0.25322 0.542603,0 0.98702,0.20671 0.444417,0.20154 0.759644,0.63045 0.315226,0.42375 0.485758,1.08004 0.170532,0.65629 0.170532,1.55546 z m -0.909505,0.031 q 0,-0.1757 -0.0155,-0.34624 -0.01034,-0.1757 -0.02584,-0.34106 l -2.857707,2.1239 q 0.07751,0.26872 0.196371,0.49609 0.118856,0.22738 0.28422,0.39275 0.170532,0.16019 0.382406,0.25321 0.217041,0.0879 0.490926,0.0879 0.3514,0 0.63562,-0.17053 0.289388,-0.17053 0.490926,-0.50643 0.201538,-0.3359 0.310059,-0.83199 0.10852,-0.50126 0.10852,-1.15755 z m -3.09025,-0.062 q 0,0.1602 0,0.3204 0.0052,0.16019 0.02067,0.31006 l 2.857707,-2.11357 q -0.07752,-0.26355 -0.196371,-0.48059 -0.118855,-0.21704 -0.28422,-0.37207 -0.165365,-0.1602 -0.377238,-0.24805 -0.211873,-0.0879 -0.475423,-0.0879 -0.3514,0 -0.640788,0.17053 -0.28422,0.17054 -0.485758,0.5116 -0.201538,0.3359 -0.310059,0.83716 -0.10852,0.49609 -0.10852,1.15238 z" />
    <path
       inkscape:connector-curvature="0"
       id="path4532"
       style="font-style:normal;font-variant:normal;font-weight:normal;font-stretch:normal;font-size:10.58333302px;line-height:100%;font-family:Consolas;-inkscape-font-specification:Consolas;letter-spacing:0px;word-spacing:0px;fill:#ffffff;fill-opacity:1;stroke:none;stroke-width:0.26458332px;stroke-linecap:butt;stroke-linejoin:miter;stroke-opacity:1"
       d="m 73.20631,123.13095 h -1.002523 l -0.470255,-1.47278 h -2.811198 l -0.475423,1.47278 h -0.956014 l 2.242757,-6.75411 h 1.260905 z m -1.736328,-2.29443 -1.142049,-3.61219 -1.142049,3.61219 z" />
    <path
       inkscape:connector-curvature="0"
       id="path4534"
       style="font-style:normal;font-variant:normal;font-weight:normal;font-stretch:normal;font-size:10.58333302px;line-height:100%;font-family:Consolas;-inkscape-font-specification:Consolas;letter-spacing:0px;word-spacing:0px;fill:#ffffff;fill-opacity:1;stroke:none;stroke-width:0.26458332px;stroke-linecap:butt;stroke-linejoin:miter;stroke-opacity:1"
       d="m 78.348115,121.0794 q 0,0.44441 -0.180867,0.83715 -0.180868,0.38758 -0.542603,0.68213 -0.361735,0.28939 -0.909505,0.45992 -0.54777,0.16537 -1.276408,0.16537 -0.403076,0 -0.72347,-0.0258 -0.320394,-0.0258 -0.599447,-0.0672 v -0.80615 q 0.320394,0.0568 0.676962,0.0879 0.356567,0.031 0.728637,0.031 0.506429,0 0.862997,-0.0879 0.361735,-0.093 0.589111,-0.26355 0.227376,-0.17053 0.330729,-0.41341 0.103353,-0.24288 0.103353,-0.54777 0,-0.27905 -0.124023,-0.48576 -0.124024,-0.2067 -0.3514,-0.34623 -0.222209,-0.13952 -0.537435,-0.2067 -0.310059,-0.0724 -0.682129,-0.0724 h -0.769979 v -0.73897 h 0.780314 q 0.304891,0 0.552938,-0.0775 0.253215,-0.0827 0.428915,-0.23254 0.180867,-0.14986 0.273885,-0.3669 0.09819,-0.22221 0.09819,-0.50127 0,-0.5426 -0.330729,-0.79065 -0.330729,-0.24804 -0.971517,-0.24804 -0.341065,0 -0.7028,0.0672 -0.361735,0.0672 -0.775146,0.20154 v -0.78549 q 0.1757,-0.062 0.37207,-0.10852 0.201538,-0.0517 0.397909,-0.0827 0.201538,-0.0362 0.397908,-0.0517 0.196371,-0.0207 0.377238,-0.0207 0.537435,0 0.945679,0.11886 0.408244,0.11369 0.682129,0.33073 0.273885,0.21704 0.413411,0.5271 0.139527,0.31006 0.139527,0.69763 0,0.57878 -0.299724,0.97152 -0.294555,0.39274 -0.81132,0.62528 0.26355,0.0413 0.516765,0.16537 0.258382,0.12402 0.45992,0.32039 0.206706,0.1912 0.330729,0.45475 0.129191,0.26355 0.129191,0.58395 z" />
    <path
       inkscape:connector-curvature="0"
       id="path4536"
       style="font-style:normal;font-variant:normal;font-weight:normal;font-stretch:normal;font-size:10.58333302px;line-height:100%;font-family:Consolas;-inkscape-font-specification:Consolas;letter-spacing:0px;word-spacing:0px;fill:#ffffff;fill-opacity:1;stroke:none;stroke-width:0.26458332px;stroke-linecap:butt;stroke-linejoin:miter;stroke-opacity:1"
       d="m 84.270234,119.37407 q 0,0.98702 -0.237711,1.70016 -0.237712,0.70797 -0.7028,1.16789 -0.465088,0.45475 -1.152384,0.67179 -0.687297,0.21704 -1.586467,0.21704 h -0.563273 v -0.78548 h 0.625285 q 0.666626,0 1.152385,-0.13436 0.485758,-0.13436 0.806152,-0.39274 0.325561,-0.26355 0.496094,-0.63562 0.170532,-0.37724 0.211873,-0.85783 l 0.02067,-0.21187 q -0.325562,0.1912 -0.749309,0.31006 -0.423746,0.11368 -0.91984,0.11368 -0.511597,0 -0.89917,-0.14986 -0.387573,-0.14986 -0.645955,-0.41858 -0.253215,-0.26871 -0.382406,-0.63562 -0.129191,-0.37207 -0.129191,-0.80615 0,-0.47025 0.170532,-0.8785 0.170532,-0.40824 0.475423,-0.70797 0.310059,-0.30489 0.738973,-0.48059 0.428915,-0.1757 0.945679,-0.1757 0.501261,0 0.925008,0.16537 0.428914,0.16536 0.738973,0.53743 0.310059,0.36691 0.485758,0.95602 0.1757,0.58911 0.175701,1.43143 z m -2.36678,-2.35127 q -0.289388,0 -0.537435,0.0982 -0.242879,0.093 -0.423747,0.27905 -0.1757,0.18087 -0.279053,0.44959 -0.103352,0.26872 -0.103352,0.61495 0,0.31523 0.07235,0.56327 0.07751,0.24805 0.232543,0.42375 0.160197,0.17053 0.408244,0.26355 0.248047,0.093 0.589112,0.093 0.191202,0 0.39274,-0.0362 0.206706,-0.0362 0.397909,-0.0982 0.19637,-0.062 0.37207,-0.1447 0.1757,-0.0827 0.315227,-0.1757 0,-0.66662 -0.09819,-1.11104 -0.09819,-0.44958 -0.28422,-0.7183 -0.186035,-0.27389 -0.454753,-0.38758 -0.263549,-0.11368 -0.599446,-0.11368 z" />
    <path
       inkscape:connector-curvature="0"
       id="path4538"
       style="font-style:normal;font-variant:normal;font-weight:normal;font-stretch:normal;font-size:10.58333302px;line-height:100%;font-family:Consolas;-inkscape-font-specification:Consolas;letter-spacing:0px;word-spacing:0px;fill:#ffffff;fill-opacity:1;stroke:none;stroke-width:0.26458332px;stroke-linecap:butt;stroke-linejoin:miter;stroke-opacity:1"
       d="m 89.794445,117.16232 h -2.868042 v 2.19108 h 2.71818 v 0.76998 h -2.71818 v 3.00757 h -0.940511 v -6.75411 h 3.808553 z" />
    <path
       inkscape:connector-curvature="0"
       id="path4540"
       style="font-style:normal;font-variant:normal;font-weight:normal;font-stretch:normal;font-size:10.58333302px;line-height:100%;font-family:Consolas;-inkscape-font-specification:Consolas;letter-spacing:0px;word-spacing:0px;fill:#ffffff;fill-opacity:1;stroke:none;stroke-width:0.26458332px;stroke-linecap:butt;stroke-linejoin:miter;stroke-opacity:1"
       d="m 66.78293,125.15147 -2.831869,5.91695 H 62.9227 l 2.940389,-5.91695 h -3.648356 v -0.83716 h 4.568197 z" />
    <path
       inkscape:connector-curvature="0"
       id="path4542"
       style="font-style:normal;font-variant:normal;font-weight:normal;font-stretch:normal;font-size:10.58333302px;line-height:100%;font-family:Consolas;-inkscape-font-specification:Consolas;letter-spacing:0px;word-spacing:0px;fill:#ffffff;fill-opacity:1;stroke:none;stroke-width:0.26458332px;stroke-linecap:butt;stroke-linejoin:miter;stroke-opacity:1"
       d="m 72.591361,131.06842 h -4.242635 v -0.83716 h 1.736328 v -4.92993 l -1.617473,0.8785 -0.330729,-0.76481 2.14974,-1.13172 h 0.795817 v 5.94796 h 1.508952 z" />
    <path
       inkscape:connector-curvature="0"
       id="path4544"
       style="font-style:normal;font-variant:normal;font-weight:normal;font-stretch:normal;font-size:10.58333302px;line-height:100%;font-family:Consolas;-inkscape-font-specification:Consolas;letter-spacing:0px;word-spacing:0px;fill:#ffffff;fill-opacity:1;stroke:none;stroke-width:0.26458332px;stroke-linecap:butt;stroke-linejoin:miter;stroke-opacity:1"
       d="m 78.410127,130.8152 q -0.81132,0.3359 -1.700155,0.3359 -1.431437,0 -2.201416,-0.85266 -0.764811,-0.85783 -0.764811,-2.53215 0,-0.81132 0.211874,-1.46761 0.211873,-0.65629 0.604614,-1.11104 0.392741,-0.45992 0.950846,-0.70797 0.558106,-0.24804 1.25057,-0.24804 0.470255,0 0.873331,0.0827 0.403077,0.0775 0.775147,0.24288 v 0.90433 q -0.366903,-0.20153 -0.759644,-0.30489 -0.392741,-0.10852 -0.857828,-0.10852 -0.475424,0 -0.862997,0.18087 -0.382405,0.1757 -0.651123,0.51676 -0.268717,0.3359 -0.413411,0.82683 -0.144694,0.48576 -0.144694,1.11104 0,1.31258 0.532267,1.97921 0.532267,0.66662 1.560628,0.66662 0.434082,0 0.831991,-0.0982 0.397908,-0.10335 0.764811,-0.28422 z" />
    <path
       inkscape:connector-curvature="0"
       id="path4546"
       style="font-style:normal;font-variant:normal;font-weight:normal;font-stretch:normal;font-size:10.58333302px;line-height:100%;font-family:Consolas;-inkscape-font-specification:Consolas;letter-spacing:0px;word-spacing:0px;fill:#ffffff;fill-opacity:1;stroke:none;stroke-width:0.26458332px;stroke-linecap:butt;stroke-linejoin:miter;stroke-opacity:1"
       d="m 84.239228,130.8152 q -0.81132,0.3359 -1.700154,0.3359 -1.431437,0 -2.201416,-0.85266 -0.764811,-0.85783 -0.764811,-2.53215 0,-0.81132 0.211873,-1.46761 0.211873,-0.65629 0.604614,-1.11104 0.392741,-0.45992 0.950847,-0.70797 0.558105,-0.24804 1.250569,-0.24804 0.470256,0 0.873332,0.0827 0.403076,0.0775 0.775146,0.24288 v 0.90433 q -0.366902,-0.20153 -0.759643,-0.30489 -0.392741,-0.10852 -0.857829,-0.10852 -0.475423,0 -0.862996,0.18087 -0.382406,0.1757 -0.651123,0.51676 -0.268718,0.3359 -0.413412,0.82683 -0.144694,0.48576 -0.144694,1.11104 0,1.31258 0.532267,1.97921 0.532268,0.66662 1.560629,0.66662 0.434082,0 0.83199,-0.0982 0.397909,-0.10335 0.764811,-0.28422 z" />
    <path
       inkscape:connector-curvature="0"
       id="path4548"
       style="font-style:normal;font-variant:normal;font-weight:normal;font-stretch:normal;font-size:10.58333302px;line-height:100%;font-family:Consolas;-inkscape-font-specification:Consolas;letter-spacing:0px;word-spacing:0px;fill:#ffffff;fill-opacity:1;stroke:none;stroke-width:0.26458332px;stroke-linecap:butt;stroke-linejoin:miter;stroke-opacity:1"
       d="m 90.471406,129.57497 h -1.152384 v 1.49345 h -0.919841 v -1.49345 h -3.250447 v -0.79065 l 2.878377,-4.47001 h 1.291911 v 4.47001 h 1.152384 z m -2.072225,-4.3925 -2.351277,3.60185 h 2.351277 z" />
    <path
       inkscape:connector-curvature="0"
       id="path4550"
       style="font-style:normal;font-variant:normal;font-weight:normal;font-stretch:normal;font-size:10.58333302px;line-height:100%;font-family:Consolas;-inkscape-font-specification:Consolas;letter-spacing:0px;word-spacing:0px;fill:#ffffff;fill-opacity:1;stroke:none;stroke-width:0.26458332px;stroke-linecap:butt;stroke-linejoin:miter;stroke-opacity:1"
       d="m 66.819103,139.00588 h -4.449341 v -0.80615 l 1.746664,-1.73633 q 0.428914,-0.42374 0.697632,-0.7338 0.268717,-0.31006 0.418579,-0.56328 0.149861,-0.25838 0.201538,-0.48575 0.05168,-0.22738 0.05168,-0.49093 0,-0.24805 -0.06718,-0.47026 -0.06718,-0.22737 -0.206706,-0.3979 -0.139526,-0.17054 -0.361735,-0.26872 -0.222209,-0.0982 -0.532267,-0.0982 -0.428915,0 -0.780314,0.19121 -0.3514,0.1912 -0.645956,0.49609 l -0.496093,-0.59428 q 0.382405,-0.40308 0.878499,-0.64595 0.501261,-0.24288 1.16272,-0.24288 0.449585,0 0.816487,0.13436 0.372071,0.13435 0.640788,0.38757 0.268717,0.25321 0.413411,0.62012 0.149862,0.3669 0.149862,0.82682 0,0.38757 -0.103353,0.7183 -0.103353,0.33073 -0.315226,0.66146 -0.206706,0.32556 -0.5271,0.67696 -0.315226,0.3514 -0.749308,0.76998 l -1.224731,1.19372 h 3.281453 z" />
    <path
       inkscape:connector-curvature="0"
       id="path4552"
       style="font-style:normal;font-variant:normal;font-weight:normal;font-stretch:normal;font-size:10.58333302px;line-height:100%;font-family:Consolas;-inkscape-font-specification:Consolas;letter-spacing:0px;word-spacing:0px;fill:#ffffff;fill-opacity:1;stroke:none;stroke-width:0.26458332px;stroke-linecap:butt;stroke-linejoin:miter;stroke-opacity:1"
       d="m 72.591361,139.00588 h -4.242635 v -0.83715 h 1.736328 v -4.92994 l -1.617473,0.8785 -0.330729,-0.76481 2.14974,-1.13171 h 0.795817 v 5.94796 h 1.508952 z" />
    <path
       inkscape:connector-curvature="0"
       id="path4554"
       style="font-style:normal;font-variant:normal;font-weight:normal;font-stretch:normal;font-size:10.58333302px;line-height:100%;font-family:Consolas;-inkscape-font-specification:Consolas;letter-spacing:0px;word-spacing:0px;fill:#ffffff;fill-opacity:1;stroke:none;stroke-width:0.26458332px;stroke-linecap:butt;stroke-linejoin:miter;stroke-opacity:1"
       d="m 78.348115,136.95433 q 0,0.44442 -0.180867,0.83716 -0.180868,0.38757 -0.542603,0.68213 -0.361735,0.28938 -0.909505,0.45992 -0.54777,0.16536 -1.276408,0.16536 -0.403076,0 -0.72347,-0.0258 -0.320394,-0.0258 -0.599447,-0.0672 v -0.80615 q 0.320394,0.0568 0.676962,0.0879 0.356567,0.031 0.728637,0.031 0.506429,0 0.862997,-0.0879 0.361735,-0.093 0.589111,-0.26355 0.227376,-0.17054 0.330729,-0.41341 0.103353,-0.24288 0.103353,-0.54777 0,-0.27906 -0.124023,-0.48576 -0.124024,-0.20671 -0.3514,-0.34623 -0.222209,-0.13953 -0.537435,-0.20671 -0.310059,-0.0724 -0.682129,-0.0724 h -0.769979 v -0.73897 h 0.780314 q 0.304891,0 0.552938,-0.0775 0.253215,-0.0827 0.428915,-0.23254 0.180867,-0.14986 0.273885,-0.3669 0.09819,-0.22221 0.09819,-0.50126 0,-0.54261 -0.330729,-0.79065 -0.330729,-0.24805 -0.971517,-0.24805 -0.341065,0 -0.7028,0.0672 -0.361735,0.0672 -0.775146,0.20154 v -0.78548 q 0.1757,-0.062 0.37207,-0.10852 0.201538,-0.0517 0.397909,-0.0827 0.201538,-0.0362 0.397908,-0.0517 0.196371,-0.0207 0.377238,-0.0207 0.537435,0 0.945679,0.11885 0.408244,0.11369 0.682129,0.33073 0.273885,0.21704 0.413411,0.5271 0.139527,0.31006 0.139527,0.69763 0,0.57878 -0.299724,0.97152 -0.294555,0.39274 -0.81132,0.62528 0.26355,0.0413 0.516765,0.16537 0.258382,0.12402 0.45992,0.32039 0.206706,0.19121 0.330729,0.45476 0.129191,0.26355 0.129191,0.58394 z" />
    <path
       inkscape:connector-curvature="0"
       id="path4556"
       style="font-style:normal;font-variant:normal;font-weight:normal;font-stretch:normal;font-size:10.58333302px;line-height:100%;font-family:Consolas;-inkscape-font-specification:Consolas;letter-spacing:0px;word-spacing:0px;fill:#ffffff;fill-opacity:1;stroke:none;stroke-width:0.26458332px;stroke-linecap:butt;stroke-linejoin:miter;stroke-opacity:1"
       d="M 84.864513,139.00588 H 83.86199 l -0.470255,-1.47277 h -2.811198 l -0.475423,1.47277 H 79.1491 l 2.242757,-6.75411 h 1.260905 z m -1.736328,-2.29443 -1.142049,-3.61218 -1.142049,3.61218 z" />
    <path
       inkscape:connector-curvature="0"
       id="path4558"
       style="font-style:normal;font-variant:normal;font-weight:normal;font-stretch:normal;font-size:10.58333302px;line-height:100%;font-family:Consolas;-inkscape-font-specification:Consolas;letter-spacing:0px;word-spacing:0px;fill:#ffffff;fill-opacity:1;stroke:none;stroke-width:0.26458332px;stroke-linecap:butt;stroke-linejoin:miter;stroke-opacity:1"
       d="m 90.17685,136.98534 q 0,0.48575 -0.191202,0.86299 -0.186035,0.37207 -0.537435,0.63045 -0.346232,0.25839 -0.842326,0.39274 -0.490926,0.13436 -1.09554,0.13436 h -1.767334 v -6.75411 h 1.932698 q 2.25826,0 2.25826,1.64331 0,0.54777 -0.26355,0.94052 -0.258382,0.39274 -0.847493,0.58394 0.273885,0.0517 0.516764,0.1757 0.248047,0.12402 0.434082,0.32039 0.186035,0.19637 0.294556,0.46509 0.10852,0.26872 0.10852,0.60462 z m -1.198893,-2.96623 q 0,-0.20671 -0.06201,-0.38758 -0.06201,-0.18603 -0.217041,-0.31522 -0.15503,-0.13436 -0.41858,-0.21187 -0.263549,-0.0775 -0.666625,-0.0775 h -0.950847 v 2.11357 h 0.919841 q 0.315226,0 0.56844,-0.0672 0.258383,-0.0672 0.43925,-0.20671 0.186035,-0.13952 0.28422,-0.34623 0.103353,-0.21187 0.103353,-0.50126 z m 0.222209,2.99723 q 0,-0.25838 -0.108521,-0.46509 -0.10852,-0.2067 -0.315226,-0.34623 -0.206706,-0.14469 -0.506429,-0.22221 -0.294555,-0.0775 -0.666626,-0.0775 h -0.940511 v 2.32544 h 0.971517 q 0.790649,0 1.178223,-0.29456 0.387573,-0.29455 0.387573,-0.91984 z" />
  </g>
</svg>
